<mxfile host="65bd71144e">
    <diagram name="Σελίδα-1" id="ma7eOHYsg1zkFZsJwAv3">
        <mxGraphModel dx="4835" dy="3485" grid="1" gridSize="10" guides="1" tooltips="1" connect="1" arrows="1" fold="1" page="1" pageScale="1" pageWidth="827" pageHeight="1169" math="0" shadow="0">
            <root>
                <mxCell id="0"/>
                <mxCell id="1" parent="0"/>
                <mxCell id="2" value="" style="rounded=0;whiteSpace=wrap;html=1;" vertex="1" parent="1">
                    <mxGeometry x="-590" y="-120" width="1460" height="1340" as="geometry"/>
                </mxCell>
                <mxCell id="nEy-xEynWaODndx7Sjhn-1" value="&lt;i&gt;User&lt;/i&gt;" style="swimlane;fontStyle=1;align=center;verticalAlign=top;childLayout=stackLayout;horizontal=1;startSize=26;horizontalStack=0;resizeParent=1;resizeParentMax=0;resizeLast=0;collapsible=1;marginBottom=0;whiteSpace=wrap;html=1;" parent="1" vertex="1">
                    <mxGeometry x="-120" y="-60" width="220" height="430" as="geometry">
                        <mxRectangle x="-120" y="40" width="70" height="30" as="alternateBounds"/>
                    </mxGeometry>
                </mxCell>
                <mxCell id="nEy-xEynWaODndx7Sjhn-2" value="- fullName: String&lt;div&gt;- email: String&lt;/div&gt;&lt;div&gt;- password: String&lt;/div&gt;&lt;div&gt;- phone: String&lt;/div&gt;&lt;div&gt;- id: int&lt;/div&gt;" style="text;strokeColor=none;fillColor=none;align=left;verticalAlign=top;spacingLeft=4;spacingRight=4;overflow=hidden;rotatable=0;points=[[0,0.5],[1,0.5]];portConstraint=eastwest;whiteSpace=wrap;html=1;" parent="nEy-xEynWaODndx7Sjhn-1" vertex="1">
                    <mxGeometry y="26" width="220" height="94" as="geometry"/>
                </mxCell>
                <mxCell id="nEy-xEynWaODndx7Sjhn-3" value="" style="line;strokeWidth=1;fillColor=none;align=left;verticalAlign=middle;spacingTop=-1;spacingLeft=3;spacingRight=3;rotatable=0;labelPosition=right;points=[];portConstraint=eastwest;strokeColor=inherit;" parent="nEy-xEynWaODndx7Sjhn-1" vertex="1">
                    <mxGeometry y="120" width="220" height="8" as="geometry"/>
                </mxCell>
                <mxCell id="nEy-xEynWaODndx7Sjhn-4" value="&lt;div&gt;&lt;font style=&quot;color: rgb(0, 0, 0);&quot;&gt;+ setFullName(String): boolean&lt;/font&gt;&lt;/div&gt;&lt;div&gt;&lt;div&gt;&lt;font style=&quot;color: rgb(0, 0, 0);&quot;&gt;+ setEmail(String): boolean&lt;/font&gt;&lt;/div&gt;&lt;/div&gt;&lt;div&gt;&lt;div&gt;&lt;font style=&quot;color: rgb(0, 0, 0);&quot;&gt;+ setPassword(String): boolean&lt;/font&gt;&lt;/div&gt;&lt;/div&gt;&lt;div&gt;&lt;div&gt;&lt;font style=&quot;color: rgb(0, 0, 0);&quot;&gt;+ setPhone(String): boolean&lt;/font&gt;&lt;/div&gt;&lt;/div&gt;&lt;div&gt;&lt;div&gt;&lt;font style=&quot;color: rgb(0, 0, 0);&quot;&gt;+ getFullName(): String&lt;/font&gt;&lt;/div&gt;&lt;div&gt;&lt;font style=&quot;color: rgb(0, 0, 0);&quot;&gt;+ getEmail(): String&lt;/font&gt;&lt;/div&gt;&lt;div&gt;&lt;font style=&quot;color: rgb(0, 0, 0);&quot;&gt;+ getPassword(): String&lt;/font&gt;&lt;/div&gt;&lt;div&gt;&lt;font style=&quot;color: rgb(0, 0, 0);&quot;&gt;+ getPhone(): String&lt;/font&gt;&lt;/div&gt;&lt;/div&gt;&lt;div&gt;&lt;font style=&quot;color: rgb(0, 0, 0);&quot;&gt;+ getId(): int&lt;/font&gt;&lt;/div&gt;&lt;font style=&quot;color: rgb(0, 0, 0);&quot;&gt;+ register(): void&lt;/font&gt;&lt;div&gt;&lt;font style=&quot;color: rgb(0, 0, 0);&quot;&gt;+ login(): void&lt;/font&gt;&lt;div&gt;&lt;font style=&quot;color: rgb(0, 0, 0);&quot;&gt;+ logout(): void&lt;/font&gt;&lt;/div&gt;&lt;div&gt;&lt;font style=&quot;color: rgb(0, 0, 0);&quot;&gt;+ isLoggedIn(): boolean&lt;/font&gt;&lt;/div&gt;&lt;div&gt;&lt;font style=&quot;color: rgb(0, 0, 0);&quot;&gt;+ changePassword(old, new): boolean&lt;/font&gt;&lt;/div&gt;&lt;div&gt;&lt;font style=&quot;color: rgb(0, 0, 0);&quot;&gt;+ verify(): boolean&lt;br&gt;&lt;/font&gt;&lt;div&gt;&lt;br&gt;&lt;/div&gt;&lt;/div&gt;&lt;/div&gt;" style="text;strokeColor=none;fillColor=none;align=left;verticalAlign=top;spacingLeft=4;spacingRight=4;overflow=hidden;rotatable=0;points=[[0,0.5],[1,0.5]];portConstraint=eastwest;whiteSpace=wrap;html=1;" parent="nEy-xEynWaODndx7Sjhn-1" vertex="1">
                    <mxGeometry y="128" width="220" height="302" as="geometry"/>
                </mxCell>
                <mxCell id="nEy-xEynWaODndx7Sjhn-5" value="Doctor" style="swimlane;fontStyle=1;align=center;verticalAlign=top;childLayout=stackLayout;horizontal=1;startSize=26;horizontalStack=0;resizeParent=1;resizeParentMax=0;resizeLast=0;collapsible=1;marginBottom=0;whiteSpace=wrap;html=1;" parent="1" vertex="1">
                    <mxGeometry x="70" y="490" width="230" height="390" as="geometry"/>
                </mxCell>
                <mxCell id="nEy-xEynWaODndx7Sjhn-6" value="- licenseID: String&lt;div&gt;- specialty: Specialty (Enum)&lt;/div&gt;&lt;div&gt;- bio: Text&lt;/div&gt;&lt;div&gt;- officeLocation: String&lt;/div&gt;&lt;div&gt;- rating: float&lt;/div&gt;" style="text;strokeColor=none;fillColor=none;align=left;verticalAlign=top;spacingLeft=4;spacingRight=4;overflow=hidden;rotatable=0;points=[[0,0.5],[1,0.5]];portConstraint=eastwest;whiteSpace=wrap;html=1;" parent="nEy-xEynWaODndx7Sjhn-5" vertex="1">
                    <mxGeometry y="26" width="230" height="94" as="geometry"/>
                </mxCell>
                <mxCell id="nEy-xEynWaODndx7Sjhn-7" value="" style="line;strokeWidth=1;fillColor=none;align=left;verticalAlign=middle;spacingTop=-1;spacingLeft=3;spacingRight=3;rotatable=0;labelPosition=right;points=[];portConstraint=eastwest;strokeColor=inherit;" parent="nEy-xEynWaODndx7Sjhn-5" vertex="1">
                    <mxGeometry y="120" width="230" height="8" as="geometry"/>
                </mxCell>
                <mxCell id="nEy-xEynWaODndx7Sjhn-8" value="&lt;div&gt;&lt;div&gt;&lt;font style=&quot;color: rgb(0, 0, 0);&quot;&gt;+ setLicenseID(String): boolean&lt;/font&gt;&lt;/div&gt;&lt;div&gt;&lt;font style=&quot;color: rgb(0, 0, 0);&quot;&gt;+ setSpecialty(Specialty): boolean&lt;/font&gt;&lt;/div&gt;&lt;div&gt;&lt;font style=&quot;color: rgb(0, 0, 0);&quot;&gt;+ setBio(Text):&amp;nbsp;&lt;span style=&quot;background-color: transparent;&quot;&gt;boolean&lt;/span&gt;&lt;/font&gt;&lt;/div&gt;&lt;div&gt;&lt;font style=&quot;color: rgb(0, 0, 0);&quot;&gt;+ setOfficeLocation(String):&amp;nbsp;&lt;span style=&quot;background-color: transparent;&quot;&gt;boolean&lt;/span&gt;&lt;/font&gt;&lt;/div&gt;&lt;div&gt;&lt;font style=&quot;color: rgb(0, 0, 0);&quot;&gt;+ setRating(float):&amp;nbsp;&lt;span style=&quot;background-color: transparent;&quot;&gt;boolean&lt;/span&gt;&lt;/font&gt;&lt;/div&gt;&lt;div&gt;&lt;div&gt;&lt;font style=&quot;color: rgb(0, 0, 0);&quot;&gt;+ getLicenseID(): String&lt;/font&gt;&lt;/div&gt;&lt;div&gt;&lt;font style=&quot;color: rgb(0, 0, 0);&quot;&gt;+ getSpecialty(): Specialty&lt;/font&gt;&lt;/div&gt;&lt;div&gt;&lt;font style=&quot;color: rgb(0, 0, 0);&quot;&gt;+ getBio(): Text&lt;/font&gt;&lt;/div&gt;&lt;div&gt;&lt;font style=&quot;color: rgb(0, 0, 0);&quot;&gt;+ getOfficeLocation(): String&lt;/font&gt;&lt;/div&gt;&lt;/div&gt;&lt;/div&gt;&lt;div&gt;&lt;font style=&quot;color: rgb(0, 0, 0);&quot;&gt;&lt;br&gt;&lt;/font&gt;&lt;/div&gt;&lt;font style=&quot;color: rgb(0, 0, 0);&quot;&gt;+ setAvailability(Availability): boolean&lt;/font&gt;&lt;div&gt;&lt;font style=&quot;color: rgb(0, 0, 0);&quot;&gt;&lt;font&gt;+ getAvailabilities(): Set&amp;lt;Availabilities&amp;gt;&lt;/font&gt;&lt;br&gt;&lt;/font&gt;&lt;div&gt;&lt;span style=&quot;background-color: transparent;&quot;&gt;&lt;font style=&quot;color: rgb(0, 0, 0);&quot;&gt;+ getAppointments(): Set&amp;lt;Appointment&amp;gt;&lt;/font&gt;&lt;/span&gt;&lt;div&gt;&lt;div&gt;&lt;font style=&quot;color: rgb(0, 0, 0);&quot;&gt;+ cancelAppointment(int): boolean&lt;/font&gt;&lt;/div&gt;&lt;div&gt;&lt;font style=&quot;color: rgb(0, 0, 0);&quot;&gt;+ getRatings(): Set&amp;lt;Ratings&amp;gt;&lt;/font&gt;&lt;/div&gt;&lt;/div&gt;&lt;/div&gt;&lt;div&gt;&lt;font style=&quot;color: rgb(0, 0, 0);&quot;&gt;+ getAverageRating(): float&lt;/font&gt;&lt;/div&gt;&lt;div&gt;&lt;font style=&quot;color: rgb(0, 0, 0);&quot;&gt;+ static getAll&lt;span style=&quot;background-color: transparent;&quot;&gt;Doctors(): Set&amp;lt;Doctors&amp;gt;&lt;/span&gt;&lt;/font&gt;&lt;/div&gt;&lt;/div&gt;" style="text;strokeColor=none;fillColor=none;align=left;verticalAlign=top;spacingLeft=4;spacingRight=4;overflow=hidden;rotatable=0;points=[[0,0.5],[1,0.5]];portConstraint=eastwest;whiteSpace=wrap;html=1;" parent="nEy-xEynWaODndx7Sjhn-5" vertex="1">
                    <mxGeometry y="128" width="230" height="262" as="geometry"/>
                </mxCell>
                <mxCell id="nEy-xEynWaODndx7Sjhn-9" value="Patient" style="swimlane;fontStyle=1;align=center;verticalAlign=top;childLayout=stackLayout;horizontal=1;startSize=26;horizontalStack=0;resizeParent=1;resizeParentMax=0;resizeLast=0;collapsible=1;marginBottom=0;whiteSpace=wrap;html=1;" parent="1" vertex="1">
                    <mxGeometry x="-340" y="490" width="320" height="190" as="geometry"/>
                </mxCell>
                <mxCell id="nEy-xEynWaODndx7Sjhn-10" value="- amka: String" style="text;strokeColor=none;fillColor=none;align=left;verticalAlign=top;spacingLeft=4;spacingRight=4;overflow=hidden;rotatable=0;points=[[0,0.5],[1,0.5]];portConstraint=eastwest;whiteSpace=wrap;html=1;" parent="nEy-xEynWaODndx7Sjhn-9" vertex="1">
                    <mxGeometry y="26" width="320" height="26" as="geometry"/>
                </mxCell>
                <mxCell id="nEy-xEynWaODndx7Sjhn-11" value="" style="line;strokeWidth=1;fillColor=none;align=left;verticalAlign=middle;spacingTop=-1;spacingLeft=3;spacingRight=3;rotatable=0;labelPosition=right;points=[];portConstraint=eastwest;strokeColor=inherit;" parent="nEy-xEynWaODndx7Sjhn-9" vertex="1">
                    <mxGeometry y="52" width="320" height="8" as="geometry"/>
                </mxCell>
                <mxCell id="nEy-xEynWaODndx7Sjhn-12" value="&lt;div&gt;&lt;div&gt;&lt;span style=&quot;background-color: transparent;&quot;&gt;&lt;font style=&quot;color: rgb(0, 0, 0);&quot;&gt;+ setAmka(String): boolean&lt;/font&gt;&lt;/span&gt;&lt;/div&gt;&lt;div&gt;&lt;div&gt;&lt;font style=&quot;color: rgb(0, 0, 0);&quot;&gt;+ getAmka(): String&lt;/font&gt;&lt;/div&gt;&lt;/div&gt;&lt;/div&gt;&lt;div&gt;&lt;font style=&quot;color: rgb(0, 0, 0);&quot;&gt;+ bookAppointment(Appointment): boolean&lt;/font&gt;&lt;/div&gt;&lt;div&gt;&lt;font style=&quot;color: rgb(0, 0, 0);&quot;&gt;+ getAppointments&lt;font&gt;ByStatus&lt;/font&gt;(Status): Set&amp;lt;Appointment&amp;gt;&lt;/font&gt;&lt;/div&gt;&lt;div&gt;&lt;font style=&quot;color: rgb(0, 0, 0);&quot;&gt;+ getUpcomingAppointments(): Set&amp;lt;Appointments&amp;gt;&lt;/font&gt;&lt;/div&gt;&lt;div&gt;&lt;div&gt;&lt;font style=&quot;color: rgb(0, 0, 0);&quot;&gt;+ cancelAppointment(Appointment): boolean&lt;/font&gt;&lt;/div&gt;&lt;/div&gt;&lt;div&gt;&lt;span style=&quot;background-color: transparent;&quot;&gt;&lt;font style=&quot;color: rgb(0, 0, 0);&quot;&gt;+ getRatings(): Set&amp;lt;Ratings&amp;gt;&amp;nbsp;&lt;/font&gt;&lt;/span&gt;&lt;/div&gt;&lt;div&gt;&lt;font style=&quot;color: rgb(0, 0, 0);&quot;&gt;+ rateDoctor(Rating): boolean&lt;/font&gt;&lt;/div&gt;" style="text;strokeColor=none;fillColor=none;align=left;verticalAlign=top;spacingLeft=4;spacingRight=4;overflow=hidden;rotatable=0;points=[[0,0.5],[1,0.5]];portConstraint=eastwest;whiteSpace=wrap;html=1;" parent="nEy-xEynWaODndx7Sjhn-9" vertex="1">
                    <mxGeometry y="60" width="320" height="130" as="geometry"/>
                </mxCell>
                <mxCell id="nEy-xEynWaODndx7Sjhn-13" value="Appointment" style="swimlane;fontStyle=1;align=center;verticalAlign=top;childLayout=stackLayout;horizontal=1;startSize=26;horizontalStack=0;resizeParent=1;resizeParentMax=0;resizeLast=0;collapsible=1;marginBottom=0;whiteSpace=wrap;html=1;" parent="1" vertex="1">
                    <mxGeometry x="-290" y="790" width="170" height="330" as="geometry"/>
                </mxCell>
                <mxCell id="nEy-xEynWaODndx7Sjhn-14" value="- date: timestamp&lt;div&gt;- timeFrom: time&lt;/div&gt;&lt;div&gt;- timeTo: time&lt;/div&gt;&lt;div&gt;- status: Status (Enum)&lt;/div&gt;&lt;div&gt;- patientID: int&lt;/div&gt;&lt;div&gt;- doctorID: int&amp;nbsp;&lt;/div&gt;" style="text;strokeColor=none;fillColor=none;align=left;verticalAlign=top;spacingLeft=4;spacingRight=4;overflow=hidden;rotatable=0;points=[[0,0.5],[1,0.5]];portConstraint=eastwest;whiteSpace=wrap;html=1;" parent="nEy-xEynWaODndx7Sjhn-13" vertex="1">
                    <mxGeometry y="26" width="170" height="104" as="geometry"/>
                </mxCell>
                <mxCell id="nEy-xEynWaODndx7Sjhn-15" value="" style="line;strokeWidth=1;fillColor=none;align=left;verticalAlign=middle;spacingTop=-1;spacingLeft=3;spacingRight=3;rotatable=0;labelPosition=right;points=[];portConstraint=eastwest;strokeColor=inherit;" parent="nEy-xEynWaODndx7Sjhn-13" vertex="1">
                    <mxGeometry y="130" width="170" height="8" as="geometry"/>
                </mxCell>
                <mxCell id="nEy-xEynWaODndx7Sjhn-16" value="&lt;div&gt;+ setDate(timestamp): boolean&lt;/div&gt;&lt;div&gt;+ setTimeFrom(time): boolean&lt;/div&gt;&lt;div&gt;+ setTimeTo(time): boolean&lt;/div&gt;&lt;div&gt;+ setStatusString): boolean&lt;/div&gt;&lt;div&gt;&lt;div&gt;+ getDate(): timestamp&lt;/div&gt;&lt;/div&gt;&lt;div&gt;&lt;div&gt;+ getTimeFrom(): time&lt;/div&gt;&lt;/div&gt;&lt;div&gt;&lt;div&gt;+ getTimeTo(): time&lt;/div&gt;&lt;div&gt;+ getStatus(): Status&lt;/div&gt;&lt;div&gt;+ getPatientID(): int&lt;/div&gt;&lt;div&gt;+ getDoctorID(): int&lt;/div&gt;&lt;/div&gt;" style="text;strokeColor=none;fillColor=none;align=left;verticalAlign=top;spacingLeft=4;spacingRight=4;overflow=hidden;rotatable=0;points=[[0,0.5],[1,0.5]];portConstraint=eastwest;whiteSpace=wrap;html=1;" parent="nEy-xEynWaODndx7Sjhn-13" vertex="1">
                    <mxGeometry y="138" width="170" height="192" as="geometry"/>
                </mxCell>
                <mxCell id="nEy-xEynWaODndx7Sjhn-17" value="Availability" style="swimlane;fontStyle=1;align=center;verticalAlign=top;childLayout=stackLayout;horizontal=1;startSize=26;horizontalStack=0;resizeParent=1;resizeParentMax=0;resizeLast=0;collapsible=1;marginBottom=0;whiteSpace=wrap;html=1;" parent="1" vertex="1">
                    <mxGeometry x="543" y="590" width="196" height="230" as="geometry"/>
                </mxCell>
                <mxCell id="nEy-xEynWaODndx7Sjhn-18" value="- date: timestamp&lt;div&gt;- timeFrom: time&lt;/div&gt;&lt;div&gt;- timeTo: time&lt;/div&gt;&lt;div&gt;- doctorID: int&lt;/div&gt;" style="text;strokeColor=none;fillColor=none;align=left;verticalAlign=top;spacingLeft=4;spacingRight=4;overflow=hidden;rotatable=0;points=[[0,0.5],[1,0.5]];portConstraint=eastwest;whiteSpace=wrap;html=1;" parent="nEy-xEynWaODndx7Sjhn-17" vertex="1">
                    <mxGeometry y="26" width="196" height="74" as="geometry"/>
                </mxCell>
                <mxCell id="nEy-xEynWaODndx7Sjhn-19" value="" style="line;strokeWidth=1;fillColor=none;align=left;verticalAlign=middle;spacingTop=-1;spacingLeft=3;spacingRight=3;rotatable=0;labelPosition=right;points=[];portConstraint=eastwest;strokeColor=inherit;" parent="nEy-xEynWaODndx7Sjhn-17" vertex="1">
                    <mxGeometry y="100" width="196" height="8" as="geometry"/>
                </mxCell>
                <mxCell id="nEy-xEynWaODndx7Sjhn-20" value="&lt;div&gt;+ setDate(timestamp): boolean&lt;/div&gt;&lt;div&gt;+ setTimeFrom(time): boolean&lt;/div&gt;&lt;div&gt;+ setTimeTo(time): boolean&lt;/div&gt;&lt;div&gt;+ getDate(): timestamp&lt;/div&gt;&lt;div&gt;+ getTimeFrom(): time&lt;/div&gt;&lt;div&gt;&lt;div&gt;+ getTimeTo(): time&lt;/div&gt;&lt;div&gt;+ getDoctorID(): int&lt;/div&gt;&lt;/div&gt;" style="text;strokeColor=none;fillColor=none;align=left;verticalAlign=top;spacingLeft=4;spacingRight=4;overflow=hidden;rotatable=0;points=[[0,0.5],[1,0.5]];portConstraint=eastwest;whiteSpace=wrap;html=1;" parent="nEy-xEynWaODndx7Sjhn-17" vertex="1">
                    <mxGeometry y="108" width="196" height="122" as="geometry"/>
                </mxCell>
                <mxCell id="nEy-xEynWaODndx7Sjhn-25" value="Diagnosis" style="swimlane;fontStyle=1;align=center;verticalAlign=top;childLayout=stackLayout;horizontal=1;startSize=26;horizontalStack=0;resizeParent=1;resizeParentMax=0;resizeLast=0;collapsible=1;marginBottom=0;whiteSpace=wrap;html=1;" parent="1" vertex="1">
                    <mxGeometry x="484.47" y="310" width="200" height="190" as="geometry"/>
                </mxCell>
                <mxCell id="nEy-xEynWaODndx7Sjhn-26" value="- appointmentID: int&lt;div&gt;- name: String&lt;/div&gt;&lt;div&gt;- details: String&lt;/div&gt;" style="text;strokeColor=none;fillColor=none;align=left;verticalAlign=top;spacingLeft=4;spacingRight=4;overflow=hidden;rotatable=0;points=[[0,0.5],[1,0.5]];portConstraint=eastwest;whiteSpace=wrap;html=1;" parent="nEy-xEynWaODndx7Sjhn-25" vertex="1">
                    <mxGeometry y="26" width="200" height="54" as="geometry"/>
                </mxCell>
                <mxCell id="nEy-xEynWaODndx7Sjhn-27" value="" style="line;strokeWidth=1;fillColor=none;align=left;verticalAlign=middle;spacingTop=-1;spacingLeft=3;spacingRight=3;rotatable=0;labelPosition=right;points=[];portConstraint=eastwest;strokeColor=inherit;" parent="nEy-xEynWaODndx7Sjhn-25" vertex="1">
                    <mxGeometry y="80" width="200" height="8" as="geometry"/>
                </mxCell>
                <mxCell id="nEy-xEynWaODndx7Sjhn-28" value="&lt;div&gt;&lt;span style=&quot;background-color: transparent;&quot;&gt;&lt;font style=&quot;color: rgb(0, 0, 0);&quot;&gt;+ setName(String): boolean&lt;/font&gt;&lt;/span&gt;&lt;/div&gt;&lt;div&gt;&lt;font style=&quot;color: rgb(0, 0, 0);&quot;&gt;+ setDetails(String): boolean&lt;/font&gt;&lt;/div&gt;&lt;div&gt;&lt;div&gt;&lt;font style=&quot;color: rgb(0, 0, 0);&quot;&gt;+ getAppointment(): Appointment&lt;/font&gt;&lt;/div&gt;&lt;div&gt;&lt;font style=&quot;color: rgb(0, 0, 0);&quot;&gt;+ getName(): String&lt;/font&gt;&lt;/div&gt;&lt;div&gt;&lt;font style=&quot;color: rgb(0, 0, 0);&quot;&gt;+ getDetails(): String&lt;/font&gt;&lt;/div&gt;&lt;/div&gt;&lt;div&gt;&lt;font style=&quot;color: rgb(0, 0, 0);&quot;&gt;+ editDetails(details): boolean&lt;/font&gt;&lt;/div&gt;" style="text;strokeColor=none;fillColor=none;align=left;verticalAlign=top;spacingLeft=4;spacingRight=4;overflow=hidden;rotatable=0;points=[[0,0.5],[1,0.5]];portConstraint=eastwest;whiteSpace=wrap;html=1;" parent="nEy-xEynWaODndx7Sjhn-25" vertex="1">
                    <mxGeometry y="88" width="200" height="102" as="geometry"/>
                </mxCell>
                <mxCell id="X38XL1E0ZOS0bh-JIAz3-3" value="Extends" style="endArrow=block;endSize=16;endFill=0;html=1;rounded=0;entryX=0.156;entryY=0.984;entryDx=0;entryDy=0;entryPerimeter=0;" parent="1" edge="1">
                    <mxGeometry width="160" relative="1" as="geometry">
                        <mxPoint x="-6" y="440" as="sourcePoint"/>
                        <mxPoint x="-6.32000000000005" y="369.9980000000001" as="targetPoint"/>
                    </mxGeometry>
                </mxCell>
                <mxCell id="X38XL1E0ZOS0bh-JIAz3-4" value="" style="endArrow=none;html=1;rounded=0;" parent="1" edge="1">
                    <mxGeometry width="50" height="50" relative="1" as="geometry">
                        <mxPoint x="-190" y="440" as="sourcePoint"/>
                        <mxPoint x="190" y="440" as="targetPoint"/>
                    </mxGeometry>
                </mxCell>
                <mxCell id="X38XL1E0ZOS0bh-JIAz3-5" value="" style="endArrow=none;html=1;rounded=0;" parent="1" edge="1">
                    <mxGeometry width="50" height="50" relative="1" as="geometry">
                        <mxPoint x="-190" y="489" as="sourcePoint"/>
                        <mxPoint x="-190" y="440" as="targetPoint"/>
                    </mxGeometry>
                </mxCell>
                <mxCell id="X38XL1E0ZOS0bh-JIAz3-6" value="" style="endArrow=none;html=1;rounded=0;exitX=0.5;exitY=0;exitDx=0;exitDy=0;" parent="1" edge="1">
                    <mxGeometry width="50" height="50" relative="1" as="geometry">
                        <mxPoint x="190" y="490" as="sourcePoint"/>
                        <mxPoint x="190" y="440" as="targetPoint"/>
                    </mxGeometry>
                </mxCell>
                <mxCell id="X38XL1E0ZOS0bh-JIAz3-14" value="" style="endArrow=none;html=1;edgeStyle=orthogonalEdgeStyle;rounded=0;entryX=0;entryY=0.5;entryDx=0;entryDy=0;exitX=1;exitY=0.5;exitDx=0;exitDy=0;" parent="1" source="nEy-xEynWaODndx7Sjhn-14" target="nEy-xEynWaODndx7Sjhn-8" edge="1">
                    <mxGeometry relative="1" as="geometry">
                        <mxPoint x="-96" y="870" as="sourcePoint"/>
                        <mxPoint x="10" y="660" as="targetPoint"/>
                        <Array as="points">
                            <mxPoint x="-120" y="870"/>
                            <mxPoint x="-10" y="870"/>
                            <mxPoint x="-10" y="739"/>
                            <mxPoint x="70" y="739"/>
                        </Array>
                    </mxGeometry>
                </mxCell>
                <mxCell id="X38XL1E0ZOS0bh-JIAz3-15" value="0...*" style="edgeLabel;resizable=0;html=1;align=left;verticalAlign=bottom;" parent="X38XL1E0ZOS0bh-JIAz3-14" connectable="0" vertex="1">
                    <mxGeometry x="-1" relative="1" as="geometry">
                        <mxPoint x="6" y="-2" as="offset"/>
                    </mxGeometry>
                </mxCell>
                <mxCell id="X38XL1E0ZOS0bh-JIAz3-17" value="1" style="edgeLabel;resizable=0;html=1;align=left;verticalAlign=bottom;" parent="1" connectable="0" vertex="1">
                    <mxGeometry x="40" y="690" as="geometry">
                        <mxPoint x="15" y="47" as="offset"/>
                    </mxGeometry>
                </mxCell>
                <mxCell id="X38XL1E0ZOS0bh-JIAz3-18" value="" style="endArrow=none;html=1;edgeStyle=orthogonalEdgeStyle;rounded=0;exitX=0.005;exitY=0.541;exitDx=0;exitDy=0;exitPerimeter=0;" parent="1" edge="1">
                    <mxGeometry relative="1" as="geometry">
                        <mxPoint x="-290.04999999999995" y="869.724" as="sourcePoint"/>
                        <mxPoint x="-340" y="585" as="targetPoint"/>
                        <Array as="points">
                            <mxPoint x="-290" y="868"/>
                            <mxPoint x="-444" y="868"/>
                            <mxPoint x="-444" y="585"/>
                        </Array>
                    </mxGeometry>
                </mxCell>
                <mxCell id="X38XL1E0ZOS0bh-JIAz3-19" value="0...*" style="edgeLabel;resizable=0;html=1;align=left;verticalAlign=bottom;" parent="X38XL1E0ZOS0bh-JIAz3-18" connectable="0" vertex="1">
                    <mxGeometry x="-1" relative="1" as="geometry">
                        <mxPoint x="-24" y="-2" as="offset"/>
                    </mxGeometry>
                </mxCell>
                <mxCell id="X38XL1E0ZOS0bh-JIAz3-20" value="1" style="edgeLabel;resizable=0;html=1;align=right;verticalAlign=bottom;" parent="X38XL1E0ZOS0bh-JIAz3-18" connectable="0" vertex="1">
                    <mxGeometry x="1" relative="1" as="geometry">
                        <mxPoint x="-9" y="-2" as="offset"/>
                    </mxGeometry>
                </mxCell>
                <mxCell id="X38XL1E0ZOS0bh-JIAz3-25" value="" style="endArrow=none;html=1;edgeStyle=orthogonalEdgeStyle;rounded=0;entryX=-0.02;entryY=0.729;entryDx=0;entryDy=0;entryPerimeter=0;" parent="1" target="nEy-xEynWaODndx7Sjhn-26" edge="1">
                    <mxGeometry relative="1" as="geometry">
                        <mxPoint x="300" y="560" as="sourcePoint"/>
                        <mxPoint x="360" y="270" as="targetPoint"/>
                        <Array as="points">
                            <mxPoint x="350" y="561"/>
                            <mxPoint x="350" y="375"/>
                        </Array>
                    </mxGeometry>
                </mxCell>
                <mxCell id="X38XL1E0ZOS0bh-JIAz3-26" value="&amp;nbsp;1" style="edgeLabel;resizable=0;html=1;align=left;verticalAlign=bottom;" parent="X38XL1E0ZOS0bh-JIAz3-25" connectable="0" vertex="1">
                    <mxGeometry x="-1" relative="1" as="geometry"/>
                </mxCell>
                <mxCell id="X38XL1E0ZOS0bh-JIAz3-27" value="0...*" style="edgeLabel;resizable=0;html=1;align=right;verticalAlign=bottom;" parent="X38XL1E0ZOS0bh-JIAz3-25" connectable="0" vertex="1">
                    <mxGeometry x="1" relative="1" as="geometry">
                        <mxPoint x="-14" y="-10" as="offset"/>
                    </mxGeometry>
                </mxCell>
                <mxCell id="X38XL1E0ZOS0bh-JIAz3-28" value="" style="endArrow=none;html=1;edgeStyle=orthogonalEdgeStyle;rounded=0;entryX=0;entryY=0.67;entryDx=0;entryDy=0;entryPerimeter=0;exitX=0.993;exitY=0.617;exitDx=0;exitDy=0;exitPerimeter=0;" parent="1" target="nEy-xEynWaODndx7Sjhn-20" edge="1" source="nEy-xEynWaODndx7Sjhn-8">
                    <mxGeometry relative="1" as="geometry">
                        <mxPoint x="300" y="650" as="sourcePoint"/>
                        <mxPoint x="410" y="650" as="targetPoint"/>
                        <Array as="points"/>
                    </mxGeometry>
                </mxCell>
                <mxCell id="X38XL1E0ZOS0bh-JIAz3-29" value="1" style="edgeLabel;resizable=0;html=1;align=left;verticalAlign=bottom;" parent="X38XL1E0ZOS0bh-JIAz3-28" connectable="0" vertex="1">
                    <mxGeometry x="-1" relative="1" as="geometry">
                        <mxPoint x="222" y="120" as="offset"/>
                    </mxGeometry>
                </mxCell>
                <mxCell id="X38XL1E0ZOS0bh-JIAz3-30" value="0...*&amp;nbsp;" style="edgeLabel;resizable=0;html=1;align=right;verticalAlign=bottom;" parent="X38XL1E0ZOS0bh-JIAz3-28" connectable="0" vertex="1">
                    <mxGeometry x="1" relative="1" as="geometry">
                        <mxPoint x="-3" y="-30" as="offset"/>
                    </mxGeometry>
                </mxCell>
                <mxCell id="X38XL1E0ZOS0bh-JIAz3-35" value="" style="endArrow=open;endFill=1;endSize=12;html=1;rounded=0;" parent="1" edge="1">
                    <mxGeometry width="160" relative="1" as="geometry">
                        <mxPoint x="430" y="820" as="sourcePoint"/>
                        <mxPoint x="430" y="820" as="targetPoint"/>
                    </mxGeometry>
                </mxCell>
            </root>
        </mxGraphModel>
    </diagram>
</mxfile>